<?xml version="1.0" standalone="no"?>
<!DOCTYPE svg PUBLIC "-//W3C//DTD SVG 20010904//EN"
 "http://www.w3.org/TR/2001/REC-SVG-20010904/DTD/svg10.dtd">
<svg version="1.0" xmlns="http://www.w3.org/2000/svg"
 width="1024.000000pt" height="1024.000000pt" viewBox="0 0 1024.000000 1024.000000"
 preserveAspectRatio="xMidYMid meet">
<metadata>
Created by potrace 1.16, written by Peter Selinger 2001-2019
</metadata>
<g transform="translate(0.000000,1024.000000) scale(0.100000,-0.100000)"
fill="#228B22" stroke="none">
<path d="M7888 9976 c-39 -17 -88 -66 -104 -103 -32 -75 -7 -184 55 -235 17
-15 31 -32 31 -39 0 -12 -229 -464 -278 -548 -25 -42 -26 -43 -41 -24 -54 67
-161 217 -161 224 0 4 7 20 15 35 19 37 19 117 0 153 -66 129 -258 110 -295
-29 -16 -60 -5 -103 37 -147 22 -23 36 -46 34 -58 -4 -25 -71 -256 -77 -267
-8 -12 -40 8 -163 101 -62 47 -147 110 -188 139 -41 29 -76 59 -79 65 -2 7 5
30 16 52 30 60 27 140 -7 193 -38 58 -115 97 -178 90 -66 -8 -133 -51 -156
-101 -48 -107 -8 -222 95 -271 l53 -25 97 -393 c53 -216 101 -409 106 -428 5
-19 28 -125 50 -235 23 -110 47 -205 53 -211 9 -8 58 -8 187 2 742 57 1360 59
1920 8 96 -8 191 -16 210 -17 l34 -2 17 80 c10 44 34 157 54 250 20 94 66 287
101 430 36 143 76 310 90 370 34 153 38 160 90 180 143 54 145 273 4 345 -161
82 -342 -99 -260 -260 11 -22 20 -43 20 -49 0 -20 -406 -324 -421 -315 -5 3
-16 31 -25 62 -8 31 -27 94 -41 140 l-27 82 32 33 c56 58 66 118 32 190 -26
55 -79 87 -145 87 -68 0 -106 -25 -142 -94 -19 -37 -11 -120 13 -147 22 -24
19 -28 -81 -162 -62 -84 -82 -104 -91 -94 -11 11 -174 311 -264 485 l-43 83
40 37 c49 45 67 95 61 173 -5 71 -40 122 -108 157 -49 25 -127 29 -172 8z
m153 -115 c23 -23 29 -38 29 -71 0 -92 -106 -135 -172 -70 -27 28 -30 36 -25
76 10 89 106 127 168 65z m-37 -382 c10 -19 54 -99 96 -179 199 -374 228 -427
261 -477 81 -118 213 -161 346 -112 86 32 303 180 550 377 30 24 57 41 60 39
6 -6 -12 -83 -74 -327 -38 -150 -73 -302 -159 -680 -9 -41 -20 -79 -25 -84 -5
-6 -102 -2 -251 10 -205 16 -335 19 -833 18 -515 0 -621 -3 -834 -22 -135 -11
-248 -19 -251 -17 -4 3 -10 24 -14 47 -15 95 -211 912 -243 1011 -8 27 -12 51
-9 54 3 3 29 -14 58 -39 29 -25 89 -71 133 -103 44 -33 85 -63 90 -67 106 -86
232 -168 316 -208 146 -69 280 -21 386 138 47 72 167 290 270 495 46 93 90
166 96 164 6 -2 20 -19 31 -38z m-1420 -29 c10 -10 20 -38 23 -62 5 -41 2 -47
-28 -72 -27 -23 -39 -27 -68 -22 -51 8 -76 38 -76 91 0 32 6 49 21 63 38 36
93 37 128 2z m2879 18 c34 -18 46 -40 46 -83 0 -87 -89 -127 -150 -66 -75 75
11 199 104 149z m-2092 -378 c81 -108 119 -167 119 -184 0 -20 -38 -65 -70
-81 -37 -19 -95 -19 -153 1 -75 25 -75 26 -27 186 23 79 43 149 46 156 7 22
19 11 85 -78z m1299 37 c6 -23 24 -83 41 -134 17 -51 29 -102 27 -115 -8 -54
-132 -86 -204 -52 -36 17 -84 67 -84 87 0 20 190 268 200 262 5 -3 14 -25 20
-48z"/>
<path d="M7837 8642 c-75 -75 -137 -145 -137 -153 0 -9 63 -81 140 -160 l140
-144 73 75 c39 42 103 110 141 153 59 67 66 80 55 93 -33 39 -262 274 -268
274 -3 0 -68 -62 -144 -138z"/>
<path d="M7046 8468 c-47 -51 -86 -97 -86 -103 0 -12 171 -185 183 -185 11 0
147 145 167 176 14 23 12 26 -65 105 -44 44 -88 85 -97 90 -13 7 -33 -9 -102
-83z"/>
<path d="M8724 8465 c-70 -69 -83 -88 -75 -102 13 -26 168 -183 179 -183 10 0
182 179 182 189 0 14 -173 181 -186 181 -9 0 -53 -38 -100 -85z"/>
<path d="M8150 7699 c-117 -8 -193 -19 -1395 -209 -828 -131 -835 -132 -1052
-166 l-171 -27 -6 -141 c-3 -77 -10 -487 -16 -911 -5 -423 -15 -1045 -21
-1381 l-11 -611 116 -274 c64 -151 121 -283 126 -294 45 -99 153 -352 263
-616 36 -85 79 -184 95 -220 16 -35 40 -93 53 -128 13 -35 29 -65 36 -68 6 -3
112 11 235 31 123 20 265 41 315 48 51 6 98 15 105 19 10 7 15 177 23 790 9
678 12 783 25 790 8 5 96 20 195 35 340 49 308 46 328 21 36 -43 754 -1199
851 -1370 27 -47 29 -48 64 -43 114 18 1185 181 1337 203 99 15 182 28 184 30
3 2 -5 16 -16 31 -11 15 -136 189 -278 387 -141 198 -274 383 -295 410 -20 28
-115 160 -210 295 -96 135 -209 294 -253 355 -89 125 -91 109 23 172 100 55
245 168 351 273 305 302 470 683 486 1120 14 388 -71 698 -265 971 -241 339
-684 512 -1222 478z m-175 -1143 c101 -26 160 -66 211 -142 57 -87 76 -159 75
-289 0 -187 -49 -315 -162 -426 -122 -119 -239 -165 -554 -214 -525 -83 -661
-103 -668 -96 -5 5 -8 240 -7 522 0 389 4 517 13 525 7 7 59 19 117 27 58 8
236 36 395 61 160 24 306 47 325 49 55 8 200 -2 255 -17z"/>
<path d="M3585 7174 c-312 -51 -441 -70 -750 -114 -154 -22 -305 -45 -336 -51
l-56 -11 -76 -197 c-91 -237 -140 -362 -247 -631 -45 -113 -106 -266 -135
-340 -29 -74 -68 -173 -88 -220 -20 -47 -68 -168 -107 -270 -117 -300 -244
-626 -367 -935 -64 -159 -143 -362 -178 -450 -34 -88 -125 -317 -202 -510 -77
-192 -194 -487 -261 -655 -66 -168 -159 -404 -207 -525 -48 -121 -112 -283
-142 -360 -30 -77 -57 -146 -61 -154 -7 -18 6 -16 493 59 209 32 486 75 615
95 129 19 266 41 304 48 l69 12 54 140 c69 181 217 594 255 713 24 74 34 93
51 97 12 3 87 14 167 25 80 11 231 34 335 51 105 16 246 39 315 50 69 11 181
29 250 40 469 74 694 108 701 104 4 -3 13 -22 19 -43 7 -20 32 -86 55 -147 24
-60 82 -213 130 -340 104 -278 115 -305 127 -305 5 0 91 13 191 30 100 16 317
50 482 75 165 25 327 49 360 55 33 5 135 21 227 36 91 15 171 30 177 34 8 4 4
23 -13 61 -27 60 -171 407 -311 749 -51 124 -136 329 -188 455 -262 635 -390
946 -498 1215 -21 52 -80 199 -132 325 -51 127 -189 466 -306 755 -117 289
-253 622 -301 740 -49 118 -98 241 -110 273 -21 56 -22 57 -58 56 -20 -1 -131
-16 -247 -35z m-435 -1676 c10 -24 48 -124 83 -223 36 -99 113 -310 172 -470
188 -514 197 -537 188 -546 -5 -5 -152 -29 -328 -54 -176 -25 -372 -54 -435
-65 -158 -26 -226 -30 -222 -10 2 8 29 87 62 175 32 88 80 219 106 290 49 138
62 173 224 630 95 266 114 315 127 315 2 0 13 -19 23 -42z"/>
<path d="M7715 2109 c-71 -10 -224 -32 -340 -49 -115 -17 -225 -33 -242 -36
l-33 -5 0 -104 0 -105 34 0 c19 0 116 11 217 25 101 14 185 25 187 25 1 0 2
-6 2 -13 0 -12 -59 -96 -328 -471 l-122 -169 0 -99 0 -99 43 5 c23 4 207 29
408 56 201 28 371 50 377 50 9 0 12 33 12 115 0 85 -3 115 -12 115 -7 0 -87
-11 -178 -24 -228 -34 -300 -41 -300 -28 0 6 17 32 38 59 36 47 142 192 330
455 l93 129 -3 92 c-4 110 10 104 -183 76z"/>
<path d="M4385 2075 c-5 -1 -50 -9 -99 -16 l-88 -13 6 -635 c4 -350 11 -652
17 -672 12 -46 42 -85 82 -106 65 -34 270 -14 305 30 6 7 8 53 5 110 l-6 97
-46 -6 c-41 -5 -49 -3 -71 21 l-25 27 -3 584 -4 584 -31 -1 c-18 0 -36 -2 -42
-4z"/>
<path d="M6725 1966 l-80 -11 -3 -53 c-4 -61 -20 -74 -53 -43 -62 58 -204 87
-306 62 -136 -32 -272 -143 -336 -272 -48 -99 -67 -179 -67 -286 0 -309 190
-499 462 -463 80 11 155 48 224 111 l59 53 3 -64 c5 -101 -13 -165 -61 -217
-49 -53 -92 -76 -182 -99 -93 -23 -202 -8 -291 40 -46 26 -65 32 -72 23 -5 -7
-28 -52 -52 -100 -51 -103 -50 -108 31 -148 78 -39 150 -53 269 -51 286 3 499
133 593 363 22 53 22 64 25 612 l3 557 -43 -1 c-24 -1 -79 -7 -123 -13z m-218
-277 c38 -14 81 -56 105 -104 17 -32 21 -60 22 -145 1 -95 -1 -109 -24 -149
-32 -57 -117 -127 -172 -142 -67 -17 -149 -7 -197 24 -65 43 -85 93 -86 212 0
89 3 106 27 155 51 104 133 160 235 160 34 0 74 -5 90 -11z"/>
<path d="M3595 1914 c-28 -4 -380 -52 -565 -78 l-85 -11 3 -695 c1 -381 5
-696 7 -698 3 -3 58 2 122 12 65 9 216 30 336 46 138 19 245 39 295 55 172 58
273 167 307 334 17 81 7 167 -28 244 -32 70 -75 103 -181 141 -16 6 -13 13 31
59 90 96 115 158 114 285 -1 182 -99 290 -276 306 -27 2 -63 2 -80 0z m8 -265
c44 -23 66 -52 73 -95 14 -93 -27 -168 -109 -198 -53 -19 -201 -44 -287 -48
l-65 -3 -3 149 c-2 97 1 153 8 160 13 13 211 43 298 45 35 0 73 -4 85 -10z
m64 -556 c67 -32 95 -152 53 -232 -38 -75 -96 -101 -280 -127 -173 -23 -220
-27 -220 -18 0 5 -2 79 -4 165 -3 85 -1 161 3 168 8 12 279 57 364 60 28 0 64
-6 84 -16z"/>
<path d="M5215 1759 c-247 -37 -432 -194 -489 -415 -9 -36 -16 -103 -16 -161
0 -161 38 -267 127 -357 83 -83 171 -116 315 -116 107 0 176 14 250 51 220
108 331 289 331 539 0 172 -65 313 -178 388 -97 64 -217 89 -340 71z m98 -240
c53 -14 100 -60 128 -121 33 -75 33 -211 0 -285 -28 -64 -104 -137 -157 -152
-110 -31 -216 0 -264 76 -61 95 -64 214 -11 327 62 128 181 189 304 155z"/>
</g>
</svg>
